<?xml version="1.0" encoding="UTF-8"?>
<svg id="OBJECTS" xmlns="http://www.w3.org/2000/svg" viewBox="0 0 384.54 265.2">
  <defs>
    <style>
      .cls-1, .cls-2, .cls-3, .cls-4 {
        fill: #edf1f4;
      }

      .cls-5, .cls-2 {
        stroke-width: 3px;
      }

      .cls-5, .cls-6, .cls-7, .cls-8, .cls-9, .cls-10, .cls-11 {
        fill: none;
      }

      .cls-5, .cls-7, .cls-8, .cls-3, .cls-9, .cls-12 {
        stroke-miterlimit: 10;
      }

      .cls-5, .cls-8, .cls-9, .cls-10 {
        stroke: #edf1f4;
      }

      .cls-13 {
        fill: #747180;
      }

      .cls-2, .cls-6, .cls-14, .cls-7, .cls-3, .cls-12, .cls-4 {
        stroke: #6b6a75;
      }

      .cls-2, .cls-6, .cls-14, .cls-10, .cls-4, .cls-11 {
        stroke-linecap: round;
        stroke-linejoin: round;
      }

      .cls-15 {
        fill: #fed65d;
      }

      .cls-14, .cls-16 {
        fill: #ff6d35;
      }

      .cls-8 {
        stroke-width: 2px;
      }

      .cls-12, .cls-17 {
        fill: #2eaeb7;
      }

      .cls-11 {
        stroke: #f29857;
      }
    </style>
  </defs>
  <g>
    <path class="cls-3" d="m82.79,192l-42.04,17.38c-3.23,1.34-6.94-.2-8.27-3.43L.98,129.73c-1.34-3.23.2-6.94,3.43-8.27l42.04-17.38c3.23-1.34,6.94.2,8.27,3.43l31.5,76.21c1.34,3.23-.2,6.94-3.43,8.27Z"/>
    <path class="cls-17" d="m78.9,181.64l-42.71,17.65c-1.19.49-2.56-.07-3.05-1.27L5.47,131.07c-.49-1.19.07-2.55,1.27-3.05l42.71-17.65c1.19-.49,2.56.07,3.05,1.26l27.67,66.96c.49,1.19-.07,2.56-1.27,3.05Z"/>
    <path class="cls-17" d="m62.14,194.27c.59,1.42-.09,3.05-1.51,3.64-1.42.59-3.05-.09-3.64-1.51-.59-1.42.09-3.05,1.51-3.64,1.42-.59,3.05.09,3.64,1.51Z"/>
    <line class="cls-7" x1="22.59" y1="117.79" x2="30.99" y2="114.32"/>
    <g>
      <path class="cls-1" d="m15.25,137.15l-.15.06c-1.89.78-4.07-.13-4.85-2.01h0c-.78-1.89.13-4.07,2.01-4.85l.15-.06c1.89-.78,4.07.13,4.85,2.01h0c.78,1.89-.13,4.07-2.01,4.85Z"/>
      <path class="cls-1" d="m19.34,147.05l-.15.06c-1.89.78-4.07-.13-4.85-2.01h0c-.78-1.89.13-4.07,2.01-4.85l.15-.06c1.89-.78,4.07.13,4.85,2.01h0c.78,1.89-.13,4.07-2.01,4.85Z"/>
      <path class="cls-1" d="m23.43,156.94l-.15.06c-1.89.78-4.07-.13-4.85-2.01h0c-.78-1.89.13-4.07,2.01-4.85l.15-.06c1.89-.78,4.07.13,4.85,2.01h0c.78,1.89-.13,4.07-2.01,4.85Z"/>
      <line class="cls-7" x1="19.89" y1="131.22" x2="39.02" y2="123.31"/>
      <line class="cls-7" x1="23.98" y1="141.11" x2="43.11" y2="133.2"/>
      <line class="cls-7" x1="28.07" y1="151.01" x2="47.2" y2="143.1"/>
    </g>
    <g>
      <path class="cls-1" d="m28.08,168.19l-.15.06c-1.89.78-4.07-.13-4.85-2.01h0c-.78-1.89.13-4.07,2.01-4.85l.15-.06c1.89-.78,4.07.13,4.85,2.01h0c.78,1.89-.13,4.07-2.01,4.85Z"/>
      <path class="cls-1" d="m32.17,178.08l-.15.06c-1.89.78-4.07-.12-4.85-2.01h0c-.78-1.89.13-4.07,2.01-4.85l.15-.06c1.89-.78,4.07.13,4.85,2.01h0c.78,1.89-.13,4.07-2.01,4.85Z"/>
      <path class="cls-1" d="m36.26,187.98l-.15.06c-1.89.78-4.07-.13-4.85-2.01h0c-.78-1.89.13-4.07,2.01-4.85l.15-.06c1.89-.78,4.07.13,4.85,2.01h0c.78,1.89-.13,4.07-2.01,4.85Z"/>
      <line class="cls-7" x1="32.72" y1="162.25" x2="51.85" y2="154.34"/>
      <line class="cls-7" x1="36.81" y1="172.15" x2="55.94" y2="164.24"/>
      <line class="cls-7" x1="40.9" y1="182.04" x2="60.03" y2="174.13"/>
    </g>
  </g>
  <g>
    <line class="cls-4" x1="5.19" y1="100.42" x2="14.59" y2="100.42"/>
    <line class="cls-4" x1="206.58" y1="57.32" x2="215.98" y2="57.32"/>
    <line class="cls-4" x1="298.42" y1="32.21" x2="307.82" y2="32.21"/>
    <line class="cls-4" x1="66.77" y1="188.06" x2="71.9" y2="188.06"/>
    <line class="cls-4" x1="235.34" y1="88.71" x2="243.18" y2="88.71"/>
    <line class="cls-4" x1="365.79" y1="251.47" x2="377.09" y2="251.47"/>
    <line class="cls-4" x1="357.26" y1="59.26" x2="364.19" y2="59.26"/>
    <line class="cls-4" x1="192.35" y1="29.59" x2="201.76" y2="29.59"/>
  </g>
  <g>
    <circle class="cls-3" cx="76.01" cy="44.48" r="43.98" transform="translate(19.54 112.07) rotate(-80.46)"/>
    <circle class="cls-17" cx="76.01" cy="44.48" r="39.64" transform="translate(-9.19 66.78) rotate(-45)"/>
    <line class="cls-9" x1="76.01" y1="44.48" x2="104.93" y2="44.48"/>
    <line class="cls-8" x1="76.01" y1="19.93" x2="76.01" y2="44.48"/>
    <path class="cls-1" d="m78.51,44.48c0,1.38-1.12,2.5-2.5,2.5s-2.5-1.12-2.5-2.5,1.12-2.5,2.5-2.5,2.5,1.12,2.5,2.5Z"/>
    <g>
      <g>
        <line class="cls-9" x1="47.15" y1="15.63" x2="48.83" y2="17.31"/>
        <line class="cls-9" x1="103.19" y1="71.68" x2="104.87" y2="73.36"/>
      </g>
      <g>
        <line class="cls-9" x1="47.14" y1="73.35" x2="48.82" y2="71.67"/>
        <line class="cls-9" x1="103.18" y1="17.31" x2="104.86" y2="15.63"/>
      </g>
    </g>
    <g>
      <g>
        <line class="cls-9" x1="76.01" y1="3.68" x2="76.01" y2="6.06"/>
        <line class="cls-9" x1="76.01" y1="82.94" x2="76.01" y2="85.31"/>
      </g>
      <g>
        <line class="cls-9" x1="35.19" y1="44.48" x2="37.57" y2="44.48"/>
        <line class="cls-9" x1="114.45" y1="44.48" x2="116.82" y2="44.48"/>
      </g>
    </g>
  </g>
  <g>
    <rect class="cls-4" x="96.12" y="41.9" width="80.51" height="48.27"/>
    <polygon class="cls-4" points="96.12 90.17 136.37 66.04 176.63 90.17 96.12 90.17"/>
    <polygon class="cls-4" points="96.12 41.9 136.37 71.37 176.63 41.9 96.12 41.9"/>
  </g>
  <g>
    <rect class="cls-12" x="264.14" y="69.23" width="119.9" height="150.33"/>
    <rect class="cls-1" x="270.59" y="75.22" width="107" height="136.36"/>
    <path class="cls-16" d="m339.48,60.22h-12.16c.93-.87,1.52-2.09,1.52-3.46,0-2.62-2.13-4.75-4.75-4.75s-4.75,2.13-4.75,4.75c0,1.37.59,2.6,1.52,3.46h-12.16c-3.74,0-6.78,3.03-6.78,6.78v12.55c0,.92.75,1.67,1.67,1.67h40.99c.92,0,1.67-.75,1.67-1.67v-12.55c0-3.74-3.03-6.78-6.78-6.78Zm-15.39-6.21c1.52,0,2.75,1.23,2.75,2.75s-1.23,2.75-2.75,2.75-2.75-1.23-2.75-2.75,1.23-2.75,2.75-2.75Z"/>
    <line class="cls-6" x1="278.09" y1="93.22" x2="370.09" y2="93.22"/>
    <line class="cls-6" x1="278.09" y1="100.42" x2="370.09" y2="100.42"/>
    <line class="cls-6" x1="278.09" y1="107.61" x2="370.09" y2="107.61"/>
    <line class="cls-6" x1="278.09" y1="114.8" x2="370.09" y2="114.8"/>
    <line class="cls-6" x1="278.09" y1="121.99" x2="370.09" y2="121.99"/>
    <line class="cls-6" x1="278.09" y1="129.19" x2="370.09" y2="129.19"/>
    <line class="cls-6" x1="278.09" y1="136.38" x2="370.09" y2="136.38"/>
    <line class="cls-6" x1="278.09" y1="143.57" x2="370.09" y2="143.57"/>
    <line class="cls-6" x1="278.09" y1="150.76" x2="370.09" y2="150.76"/>
    <line class="cls-6" x1="278.09" y1="157.95" x2="370.09" y2="157.95"/>
    <line class="cls-6" x1="278.09" y1="165.15" x2="370.09" y2="165.15"/>
    <line class="cls-6" x1="278.09" y1="172.34" x2="370.09" y2="172.34"/>
    <line class="cls-6" x1="278.09" y1="179.53" x2="370.09" y2="179.53"/>
    <line class="cls-6" x1="278.09" y1="186.72" x2="370.09" y2="186.72"/>
    <line class="cls-10" x1="305.43" y1="75.22" x2="342.75" y2="75.21"/>
  </g>
  <g>
    <path class="cls-3" d="m278.4,240.29V107c0-4.32-3.5-7.82-7.82-7.82H73.84c-4.32,0-7.82,3.5-7.82,7.82v133.25l212.39.04Z"/>
    <rect class="cls-16" x="73.12" y="109.84" width="198.16" height="124.68"/>
    <rect class="cls-7" x="73.12" y="109.84" width="198.16" height="124.68"/>
    <path class="cls-3" d="m291.13,234.52H53.29c-3.36,0-6.08,2.72-6.08,6.08h0c0,6,4.87,10.87,10.87,10.87h228.26c6,0,10.87-4.87,10.87-10.87h0c0-3.36-2.72-6.08-6.08-6.08Z"/>
    <path class="cls-7" d="m177.18,104.35c0,.92-.74,1.66-1.66,1.66s-1.66-.74-1.66-1.66.74-1.66,1.66-1.66,1.66.74,1.66,1.66Z"/>
    <path class="cls-7" d="m87.58,243c0,.92-.74,1.66-1.66,1.66s-1.66-.74-1.66-1.66.74-1.66,1.66-1.66,1.66.74,1.66,1.66Z"/>
    <circle class="cls-7" cx="93.33" cy="243" r="1.66"/>
    <line class="cls-7" x1="159.17" y1="243" x2="188.56" y2="243"/>
    <rect class="cls-1" x="112.71" y="128.75" width="122.31" height="87.18"/>
    <rect class="cls-3" x="112.71" y="128.75" width="122.31" height="7.63"/>
    <line class="cls-3" x1="140.52" y1="136.38" x2="140.52" y2="215.93"/>
    <path class="cls-15" d="m205.2,172.19c0,10.35-8.39,18.74-18.75,18.74s-18.74-8.39-18.74-18.74,8.39-18.75,18.74-18.75v18.75l9.47-16.19c5.55,3.25,9.28,9.28,9.28,16.19Z"/>
    <circle class="cls-15" cx="229.5" cy="132.57" r="1.78"/>
    <circle class="cls-15" cx="224.44" cy="132.57" r="1.78"/>
    <circle class="cls-15" cx="219.56" cy="132.57" r="1.78"/>
    <path class="cls-13" d="m197.28,150.28l-9.47,16.19v-18.75c3.45,0,6.69.93,9.47,2.56Z"/>
    <line class="cls-4" x1="199.36" y1="150.76" x2="213.52" y2="150.76"/>
    <line class="cls-4" x1="209.4" y1="155.83" x2="229.5" y2="155.83"/>
    <line class="cls-4" x1="209.4" y1="159.96" x2="229.5" y2="159.96"/>
    <line class="cls-4" x1="209.4" y1="163.96" x2="229.5" y2="163.96"/>
    <line class="cls-4" x1="209.4" y1="168.31" x2="229.5" y2="168.31"/>
    <line class="cls-4" x1="146.84" y1="203.76" x2="228.79" y2="203.76"/>
    <line class="cls-4" x1="146.84" y1="208.75" x2="228.79" y2="208.75"/>
    <g>
      <path class="cls-15" d="m121.86,153.93c0,1.75-1.42,3.17-3.17,3.17s-3.17-1.42-3.17-3.17,1.42-3.17,3.17-3.17,3.17,1.42,3.17,3.17Z"/>
      <path class="cls-15" d="m121.86,165.15c0,1.75-1.42,3.17-3.17,3.17s-3.17-1.42-3.17-3.17,1.42-3.17,3.17-3.17,3.17,1.42,3.17,3.17Z"/>
      <line class="cls-4" x1="123.77" y1="153.93" x2="131.65" y2="153.93"/>
      <line class="cls-4" x1="123.77" y1="165.15" x2="131.65" y2="165.15"/>
    </g>
    <g>
      <path class="cls-15" d="m122.04,176.8c0,1.75-1.42,3.17-3.17,3.17s-3.17-1.42-3.17-3.17,1.42-3.17,3.17-3.17,3.17,1.42,3.17,3.17Z"/>
      <path class="cls-15" d="m122.04,188.02c0,1.75-1.42,3.17-3.17,3.17s-3.17-1.42-3.17-3.17,1.42-3.17,3.17-3.17,3.17,1.42,3.17,3.17Z"/>
      <line class="cls-4" x1="123.96" y1="176.8" x2="131.84" y2="176.8"/>
      <line class="cls-4" x1="123.96" y1="188.02" x2="131.84" y2="188.02"/>
    </g>
    <rect class="cls-4" x="144.36" y="140.12" width="12.5" height="12.5"/>
    <rect class="cls-4" x="144.36" y="156.21" width="12.5" height="12.5"/>
  </g>
  <g>
    <path class="cls-7" d="m371.59,225.88c-3.73,8.18-12.03,12.41-18.54,9.44-6.51-2.97-8.77-12-5.04-20.18,3.73-8.18,12.03-12.41,18.54-9.44s8.77,12,5.04,20.18Z"/>
    <polygon class="cls-16" points="353.06 189.66 297.12 189.66 302.99 260.3 347.18 260.3 353.06 189.66"/>
    <polygon class="cls-1" points="305.21 189.87 311.37 260.3 320.85 260.3 320.85 189.66 312 189.66 305.21 189.87"/>
    <polygon class="cls-7" points="353.06 189.66 297.12 189.66 302.99 260.3 347.18 260.3 353.06 189.66"/>
  </g>
  <g>
    <path class="cls-5" d="m304.77,103.99c0,9.62-7.7,9.62-7.7,19.25s7.7,9.62,7.7,19.25-7.7,9.62-7.7,19.25,7.7,9.62,7.7,19.25"/>
    <path class="cls-5" d="m318.88,103.99c0,9.62-7.7,9.62-7.7,19.25s7.7,9.62,7.7,19.25-7.7,9.62-7.7,19.25,7.7,9.62,7.7,19.25"/>
    <path class="cls-5" d="m332.99,103.99c0,9.62-7.7,9.62-7.7,19.25s7.7,9.62,7.7,19.25-7.7,9.62-7.7,19.25,7.7,9.62,7.7,19.25"/>
    <path class="cls-5" d="m347.1,103.99c0,9.62-7.7,9.62-7.7,19.25s7.7,9.62,7.7,19.25-7.7,9.62-7.7,19.25,7.7,9.62,7.7,19.25"/>
  </g>
  <g>
    <rect class="cls-4" x="197.06" y="52.55" width="54.59" height="30.24" transform="translate(-9.27 49.4) rotate(-12.31)"/>
    <line class="cls-2" x1="206.47" y1="62.82" x2="238.59" y2="55.81"/>
    <line class="cls-11" x1="201.01" y1="70.65" x2="246.82" y2="60.65"/>
    <line class="cls-11" x1="201.78" y1="74.18" x2="247.6" y2="64.18"/>
    <line class="cls-11" x1="202.48" y1="77.42" x2="221.71" y2="73.23"/>
  </g>
  <path class="cls-14" d="m228.73,7.03h-45c-6.06,0-11.02,4.96-11.02,11.02v11.36c0,6.05,4.94,11,10.99,11.02-.51,4.46-2.56,10.87-9.69,14.43,0,0,14.73-3.11,21.97-14.43h32.74c6.06,0,11.02-4.96,11.02-11.02v-11.36c0-6.06-4.96-11.02-11.02-11.02Z"/>
  <g>
    <path class="cls-3" d="m109.16,204.58h0c-2.45,0-4.46-1.99-4.47-4.44l-.03-10.04c0-2.45,1.99-4.46,4.44-4.47h0c2.45,0,4.46,1.99,4.47,4.44l.03,10.04c0,2.45-1.99,4.46-4.44,4.47Z"/>
    <path class="cls-17" d="m109.22,223.56h0c-2.45,0-4.46-1.99-4.47-4.44l-.03-10.04c0-2.45,1.99-4.46,4.44-4.47h0c2.45,0,4.46,1.99,4.47,4.44l.03,10.04c0,2.45-1.99,4.46-4.44,4.47Z"/>
    <path class="cls-3" d="m109.28,242.54h0c-2.45,0-4.46-1.99-4.47-4.44l-.03-10.04c0-2.45,1.99-4.46,4.44-4.47h0c2.45,0,4.46,1.99,4.47,4.44l.03,10.04c0,2.45-1.99,4.46-4.44,4.47Z"/>
    <path class="cls-16" d="m109.34,261.52h0c-2.45,0-4.46-1.99-4.47-4.44l-.03-10.04c0-2.45,1.99-4.46,4.44-4.47h0c2.45,0,4.46,1.99,4.47,4.44l.03,10.04c0,2.45-1.99,4.46-4.44,4.47Z"/>
    <path class="cls-3" d="m105.33,264.52l-55.66.17c-2.22,0-4.02-1.78-4.02-4l-.23-73.85c0-2.22,1.78-4.02,4-4.02l55.66-.17c2.22,0,4.02,1.78,4.02,4l.23,73.85c0,2.22-1.78,4.02-4,4.02Z"/>
    <g>
      <path class="cls-3" d="m54.13,190.27c0,1.7-1.37,3.08-3.06,3.08-1.7,0-3.08-1.37-3.08-3.06,0-1.7,1.37-3.08,3.06-3.08,1.7,0,3.08,1.37,3.08,3.06Z"/>
      <path class="cls-3" d="m54.16,197.71c0,1.7-1.37,3.08-3.06,3.08-1.7,0-3.08-1.37-3.08-3.06,0-1.7,1.37-3.08,3.06-3.08,1.7,0,3.08,1.37,3.08,3.06Z"/>
      <path class="cls-3" d="m54.18,205.15c0,1.7-1.37,3.08-3.06,3.08-1.7,0-3.08-1.37-3.08-3.06,0-1.7,1.37-3.08,3.06-3.08,1.7,0,3.08,1.37,3.08,3.06Z"/>
      <path class="cls-3" d="m54.2,212.59c0,1.7-1.37,3.08-3.06,3.08s-3.08-1.37-3.08-3.06c0-1.7,1.37-3.08,3.06-3.08s3.08,1.37,3.08,3.06Z"/>
      <path class="cls-3" d="m54.22,220.03c0,1.7-1.37,3.08-3.06,3.08-1.7,0-3.08-1.37-3.08-3.06,0-1.7,1.37-3.08,3.06-3.08,1.7,0,3.08,1.37,3.08,3.06Z"/>
      <path class="cls-3" d="m54.25,227.46c0,1.7-1.37,3.08-3.06,3.08-1.7,0-3.08-1.37-3.08-3.06,0-1.7,1.37-3.08,3.06-3.08,1.7,0,3.08,1.37,3.08,3.06Z"/>
      <path class="cls-3" d="m54.27,234.9c0,1.7-1.37,3.08-3.06,3.08-1.7,0-3.08-1.37-3.08-3.06,0-1.7,1.37-3.08,3.06-3.08,1.7,0,3.08,1.37,3.08,3.06Z"/>
      <path class="cls-3" d="m54.29,242.34c0,1.7-1.37,3.08-3.06,3.08-1.7,0-3.08-1.37-3.08-3.06,0-1.7,1.37-3.08,3.06-3.08,1.7,0,3.08,1.37,3.08,3.06Z"/>
      <path class="cls-3" d="m54.32,249.78c0,1.7-1.37,3.08-3.06,3.08-1.7,0-3.08-1.37-3.08-3.06,0-1.7,1.37-3.08,3.06-3.08,1.7,0,3.08,1.37,3.08,3.06Z"/>
      <path class="cls-3" d="m54.34,257.21c0,1.7-1.37,3.08-3.06,3.08-1.7,0-3.08-1.37-3.08-3.06,0-1.7,1.37-3.08,3.06-3.08,1.7,0,3.08,1.37,3.08,3.06Z"/>
    </g>
    <line class="cls-3" x1="51.06" y1="190.28" x2="40.99" y2="190.31"/>
    <line class="cls-3" x1="51.08" y1="197.8" x2="41.01" y2="197.83"/>
    <line class="cls-3" x1="51.13" y1="212.68" x2="41.06" y2="212.71"/>
    <line class="cls-3" x1="51.11" y1="205.16" x2="41.03" y2="205.19"/>
    <line class="cls-3" x1="51.15" y1="219.99" x2="41.08" y2="220.03"/>
    <line class="cls-3" x1="51.18" y1="227.51" x2="41.1" y2="227.54"/>
    <line class="cls-3" x1="51.2" y1="235.18" x2="41.13" y2="235.21"/>
    <line class="cls-3" x1="51.22" y1="242.7" x2="41.15" y2="242.73"/>
    <line class="cls-3" x1="51.24" y1="249.79" x2="41.17" y2="249.82"/>
    <line class="cls-3" x1="51.27" y1="257.31" x2="41.2" y2="257.34"/>
    <rect class="cls-17" x="61.11" y="197.76" width="32.39" height="5.91" transform="translate(-.62 .24) rotate(-.18)"/>
  </g>
  <g>
    <polygon class="cls-4" points="233.93 258.02 281.92 244.77 280.8 240.7 232.81 253.95 224.36 258.47 233.93 258.02"/>
    <line class="cls-4" x1="233.93" y1="258.02" x2="232.81" y2="253.95"/>
    <line class="cls-4" x1="277.59" y1="245.97" x2="276.47" y2="241.9"/>
    <line class="cls-4" x1="277.03" y1="243.93" x2="248.11" y2="251.91"/>
    <line class="cls-4" x1="228.23" y1="258.28" x2="227.77" y2="256.64"/>
  </g>
  <g>
    <path class="cls-4" d="m362.37,40.25h0c-.39,1.25-1.72,1.95-2.97,1.57l-31.65-9.79,1.4-4.54,31.65,9.79c1.25.39,1.95,1.72,1.57,2.97Z"/>
    <path class="cls-4" d="m337.51,32.55h0c-.64,2.09-2.88,3.26-4.97,2.62l-23.53-7.28c-2.09-.65-3.26-2.88-2.62-4.97h0c.65-2.09,2.88-3.26,4.97-2.62l23.53,7.28c2.09.65,3.26,2.88,2.62,4.97Z"/>
    <path class="cls-6" d="m314.15,21.17c.27-.86.77-2.48.77-2.48l16.96,5.25"/>
    <line class="cls-6" x1="362.37" y1="40.25" x2="366.33" y2="41.47"/>
    <line class="cls-6" x1="306.39" y1="22.92" x2="302.93" y2="21.85"/>
  </g>
  <g>
    <path class="cls-3" d="m277.03,142.1h0c-3.6,0-6.51-2.92-6.51-6.51V25.54h13.02v110.05c0,3.6-2.91,6.51-6.51,6.51Z"/>
    <path class="cls-3" d="m290.72,76.54c0,7.56-6.13,13.69-13.69,13.69s-13.69-6.13-13.69-13.69,6.13-13.69,13.69-13.69,13.69,6.13,13.69,13.69Z"/>
    <circle class="cls-15" cx="276.96" cy="76.54" r="10.44"/>
    <path class="cls-3" d="m282.31,25.54h-10.71c-3.52,0-6.39-2.88-6.39-6.39h0c0-3.52,2.88-6.39,6.39-6.39h10.71c3.52,0,6.39,2.88,6.39,6.39h0c0,3.52-2.88,6.39-6.39,6.39Z"/>
    <line class="cls-3" x1="276.96" y1="25.54" x2="277.03" y2="16.58"/>
    <path class="cls-3" d="m278.49,121.16c0,.81-.65,1.46-1.46,1.46s-1.46-.65-1.46-1.46.65-1.46,1.46-1.46,1.46.65,1.46,1.46Z"/>
    <path class="cls-3" d="m278.49,126.79c0,.81-.65,1.46-1.46,1.46s-1.46-.65-1.46-1.46.65-1.46,1.46-1.46,1.46.65,1.46,1.46Z"/>
    <path class="cls-3" d="m278.49,132.42c0,.81-.65,1.46-1.46,1.46s-1.46-.65-1.46-1.46.65-1.46,1.46-1.46,1.46.65,1.46,1.46Z"/>
    <polyline class="cls-10" points="277.03 68.41 276.96 76.54 282.62 73.33"/>
  </g>
</svg>